<svg id="visual" viewBox="0 0 900 600" width="900" height="600" xmlns="http://www.w3.org/2000/svg" xmlns:xlink="http://www.w3.org/1999/xlink" version="1.1"><rect x="0" y="0" width="900" height="600" fill="#1c2730"></rect><path d="M0 258L21.5 248C43 238 86 218 128.8 205.2C171.7 192.3 214.3 186.7 257.2 199.2C300 211.7 343 242.3 385.8 262.3C428.7 282.3 471.3 291.7 514.2 286.2C557 280.7 600 260.3 642.8 242.5C685.7 224.7 728.3 209.3 771.2 210.3C814 211.3 857 228.7 878.5 237.3L900 246L900 601L878.5 601C857 601 814 601 771.2 601C728.3 601 685.7 601 642.8 601C600 601 557 601 514.2 601C471.3 601 428.7 601 385.8 601C343 601 300 601 257.2 601C214.3 601 171.7 601 128.8 601C86 601 43 601 21.5 601L0 601Z" fill="#273541"></path><path d="M0 230L21.5 236.5C43 243 86 256 128.8 262.2C171.7 268.3 214.3 267.7 257.2 272.7C300 277.7 343 288.3 385.8 287.3C428.7 286.3 471.3 273.7 514.2 280C557 286.3 600 311.7 642.8 318.5C685.7 325.3 728.3 313.7 771.2 298.5C814 283.3 857 264.7 878.5 255.3L900 246L900 601L878.5 601C857 601 814 601 771.2 601C728.3 601 685.7 601 642.8 601C600 601 557 601 514.2 601C471.3 601 428.7 601 385.8 601C343 601 300 601 257.2 601C214.3 601 171.7 601 128.8 601C86 601 43 601 21.5 601L0 601Z" fill="#24415a"></path><path d="M0 332L21.5 332.3C43 332.7 86 333.3 128.8 331.2C171.7 329 214.3 324 257.2 331C300 338 343 357 385.8 359C428.7 361 471.3 346 514.2 330C557 314 600 297 642.8 292.8C685.7 288.7 728.3 297.3 771.2 314.2C814 331 857 356 878.5 368.5L900 381L900 601L878.5 601C857 601 814 601 771.2 601C728.3 601 685.7 601 642.8 601C600 601 557 601 514.2 601C471.3 601 428.7 601 385.8 601C343 601 300 601 257.2 601C214.3 601 171.7 601 128.8 601C86 601 43 601 21.5 601L0 601Z" fill="#1e4d75"></path><path d="M0 355L21.5 366.2C43 377.3 86 399.7 128.8 393.7C171.7 387.7 214.3 353.3 257.2 337.7C300 322 343 325 385.8 341.7C428.7 358.3 471.3 388.7 514.2 396.2C557 403.7 600 388.3 642.8 383C685.7 377.7 728.3 382.3 771.2 379.5C814 376.7 857 366.3 878.5 361.2L900 356L900 601L878.5 601C857 601 814 601 771.2 601C728.3 601 685.7 601 642.8 601C600 601 557 601 514.2 601C471.3 601 428.7 601 385.8 601C343 601 300 601 257.2 601C214.3 601 171.7 601 128.8 601C86 601 43 601 21.5 601L0 601Z" fill="#185990"></path><path d="M0 461L21.5 451.5C43 442 86 423 128.8 418.5C171.7 414 214.3 424 257.2 424.3C300 424.7 343 415.3 385.8 419.7C428.7 424 471.3 442 514.2 439.8C557 437.7 600 415.3 642.8 401.2C685.7 387 728.3 381 771.2 385.5C814 390 857 405 878.5 412.5L900 420L900 601L878.5 601C857 601 814 601 771.2 601C728.3 601 685.7 601 642.8 601C600 601 557 601 514.2 601C471.3 601 428.7 601 385.8 601C343 601 300 601 257.2 601C214.3 601 171.7 601 128.8 601C86 601 43 601 21.5 601L0 601Z" fill="#1965ac"></path><path d="M0 479L21.5 471.3C43 463.7 86 448.3 128.8 441.2C171.7 434 214.3 435 257.2 440.2C300 445.3 343 454.7 385.8 456C428.7 457.3 471.3 450.7 514.2 455.3C557 460 600 476 642.8 487.2C685.7 498.3 728.3 504.7 771.2 507.8C814 511 857 511 878.5 511L900 511L900 601L878.5 601C857 601 814 601 771.2 601C728.3 601 685.7 601 642.8 601C600 601 557 601 514.2 601C471.3 601 428.7 601 385.8 601C343 601 300 601 257.2 601C214.3 601 171.7 601 128.8 601C86 601 43 601 21.5 601L0 601Z" fill="#266fc8"></path><path d="M0 486L21.5 488.5C43 491 86 496 128.8 494.8C171.7 493.7 214.3 486.3 257.2 482.2C300 478 343 477 385.8 488.5C428.7 500 471.3 524 514.2 534C557 544 600 540 642.8 535.7C685.7 531.3 728.3 526.7 771.2 522.7C814 518.7 857 515.3 878.5 513.7L900 512L900 601L878.5 601C857 601 814 601 771.2 601C728.3 601 685.7 601 642.8 601C600 601 557 601 514.2 601C471.3 601 428.7 601 385.8 601C343 601 300 601 257.2 601C214.3 601 171.7 601 128.8 601C86 601 43 601 21.5 601L0 601Z" fill="#3c79e3"></path><path d="M0 540L21.5 541.8C43 543.7 86 547.3 128.8 551.5C171.7 555.7 214.3 560.3 257.2 566C300 571.7 343 578.3 385.8 573C428.7 567.7 471.3 550.3 514.2 543.8C557 537.3 600 541.7 642.8 551C685.7 560.3 728.3 574.7 771.2 570.5C814 566.3 857 543.7 878.5 532.3L900 521L900 601L878.5 601C857 601 814 601 771.2 601C728.3 601 685.7 601 642.8 601C600 601 557 601 514.2 601C471.3 601 428.7 601 385.8 601C343 601 300 601 257.2 601C214.3 601 171.7 601 128.8 601C86 601 43 601 21.5 601L0 601Z" fill="#5881fe"></path></svg>