<svg id="visual" viewBox="0 0 900 600" width="900" height="600" xmlns="http://www.w3.org/2000/svg" xmlns:xlink="http://www.w3.org/1999/xlink" version="1.1"><path d="M0 135L180 103L360 99L540 116L720 87L900 153L900 601L720 601L540 601L360 601L180 601L0 601Z" fill="#c1e8ff"></path><path d="M0 183L180 191L360 136L540 169L720 193L900 170L900 601L720 601L540 601L360 601L180 601L0 601Z" fill="#b6dff8"></path><path d="M0 193L180 209L360 219L540 222L720 214L900 200L900 601L720 601L540 601L360 601L180 601L0 601Z" fill="#abd5f1"></path><path d="M0 252L180 231L360 243L540 243L720 210L900 233L900 601L720 601L540 601L360 601L180 601L0 601Z" fill="#a1ccea"></path><path d="M0 294L180 274L360 285L540 273L720 267L900 301L900 601L720 601L540 601L360 601L180 601L0 601Z" fill="#96c3e3"></path><path d="M0 314L180 323L360 328L540 301L720 325L900 308L900 601L720 601L540 601L360 601L180 601L0 601Z" fill="#8cbadc"></path><path d="M0 376L180 369L360 380L540 334L720 371L900 373L900 601L720 601L540 601L360 601L180 601L0 601Z" fill="#82b0d6"></path><path d="M0 383L180 394L360 386L540 402L720 381L900 410L900 601L720 601L540 601L360 601L180 601L0 601Z" fill="#78a7cf"></path><path d="M0 436L180 434L360 426L540 419L720 450L900 428L900 601L720 601L540 601L360 601L180 601L0 601Z" fill="#6f9ec8"></path><path d="M0 462L180 460L360 476L540 491L720 469L900 467L900 601L720 601L540 601L360 601L180 601L0 601Z" fill="#6695c1"></path><path d="M0 499L180 521L360 519L540 517L720 503L900 501L900 601L720 601L540 601L360 601L180 601L0 601Z" fill="#5d8cba"></path><path d="M0 559L180 564L360 540L540 546L720 542L900 550L900 601L720 601L540 601L360 601L180 601L0 601Z" fill="#5483b3"></path></svg>