<svg id="visual" viewBox="0 0 900 600" width="900" height="600" xmlns="http://www.w3.org/2000/svg" xmlns:xlink="http://www.w3.org/1999/xlink" version="1.1"><path d="M0 365L180 377L360 345L540 326L720 329L900 345L900 601L720 601L540 601L360 601L180 601L0 601Z" fill="#c1e8ff"></path><path d="M0 341L180 377L360 329L540 386L720 393L900 367L900 601L720 601L540 601L360 601L180 601L0 601Z" fill="#b2dbf5"></path><path d="M0 408L180 367L360 384L540 432L720 429L900 359L900 601L720 601L540 601L360 601L180 601L0 601Z" fill="#a3ceec"></path><path d="M0 414L180 451L360 441L540 416L720 412L900 455L900 601L720 601L540 601L360 601L180 601L0 601Z" fill="#95c2e2"></path><path d="M0 478L180 420L360 440L540 470L720 425L900 455L900 601L720 601L540 601L360 601L180 601L0 601Z" fill="#87b5d9"></path><path d="M0 496L180 457L360 483L540 500L720 453L900 488L900 601L720 601L540 601L360 601L180 601L0 601Z" fill="#7aa8d0"></path><path d="M0 501L180 512L360 516L540 486L720 487L900 515L900 601L720 601L540 601L360 601L180 601L0 601Z" fill="#6d9cc6"></path><path d="M0 535L180 525L360 514L540 513L720 523L900 531L900 601L720 601L540 601L360 601L180 601L0 601Z" fill="#608fbd"></path><path d="M0 559L180 569L360 554L540 561L720 552L900 561L900 601L720 601L540 601L360 601L180 601L0 601Z" fill="#5483b3"></path></svg>